<svg xmlns="http://www.w3.org/2000/svg" viewBox="0 0 31.74 31.49"><defs><style>.a{fill:#fff;stroke:#014a6c;stroke-miterlimit:10;stroke-width:0.5px;}.b{fill:#0590c5;}</style></defs><ellipse class="a" cx="15.87" cy="15.75" rx="15.62" ry="15.49"/><path class="b" d="M23.06,9.21A1.26,1.26,0,0,1,24,9.6a1.25,1.25,0,0,1,.39.92V23.59a1.26,1.26,0,0,1-.39.92,1.29,1.29,0,0,1-.92.38H8.68a1.3,1.3,0,0,1-1.3-1.3V10.52a1.28,1.28,0,0,1,.38-.92,1.26,1.26,0,0,1,.92-.39H10v-1a1.56,1.56,0,0,1,.48-1.15,1.58,1.58,0,0,1,1.15-.48h.66a1.64,1.64,0,0,1,1.63,1.63v1h3.92v-1a1.56,1.56,0,0,1,.48-1.15,1.59,1.59,0,0,1,1.16-.48h.65a1.64,1.64,0,0,1,1.63,1.63v1Zm0,14.38V13.13H8.68V23.59ZM11.3,8.23v2.94a.34.34,0,0,0,.09.24.32.32,0,0,0,.23.09h.66a.32.32,0,0,0,.23-.09.34.34,0,0,0,.09-.24V8.23A.32.32,0,0,0,12.51,8a.29.29,0,0,0-.23-.1h-.66a.29.29,0,0,0-.23.1A.32.32,0,0,0,11.3,8.23Zm5.23,9.48h2.28a.32.32,0,0,1,.24.09.32.32,0,0,1,.09.23v.66a.32.32,0,0,1-.09.23.32.32,0,0,1-.24.09H16.53V21.3a.33.33,0,0,1-.1.23.29.29,0,0,1-.23.1h-.65a.3.3,0,0,1-.24-.1.32.32,0,0,1-.09-.23V19H12.93a.32.32,0,0,1-.23-.09.33.33,0,0,1-.1-.23V18a.33.33,0,0,1,.1-.23.32.32,0,0,1,.23-.09h2.29V15.42a.31.31,0,0,1,.33-.33h.65a.32.32,0,0,1,.23.09.33.33,0,0,1,.1.24Zm2.61-9.48v2.94a.34.34,0,0,0,.09.24.32.32,0,0,0,.24.09h.65a.32.32,0,0,0,.23-.09.31.31,0,0,0,.1-.24V8.23a.34.34,0,0,0-.33-.33h-.65a.3.3,0,0,0-.24.1A.32.32,0,0,0,19.14,8.23Z"/></svg>