<svg xmlns="http://www.w3.org/2000/svg" viewBox="0 0 68.08 50.53"><defs><style>.a{fill:none;stroke:#fff;stroke-miterlimit:10;}</style></defs><path class="a" d="M.5,15.56V47.28A2.64,2.64,0,0,0,3,50h62a2.64,2.64,0,0,0,2.52-2.75v-44A2.65,2.65,0,0,0,65.06.5H3A2.65,2.65,0,0,0,.5,3.26V11h64"/><path class="a" d="M11.68,22H7.44A.45.45,0,0,1,7,21.52V16.87a.45.45,0,0,1,.43-.47h4.24a.45.45,0,0,1,.43.47v4.65A.45.45,0,0,1,11.68,22Z"/><rect class="a" x="7.01" y="27.27" width="5.1" height="5.58" rx="0.51"/><rect class="a" x="7.01" y="38.14" width="5.1" height="5.58" rx="0.51"/><path class="a" d="M23.92,22H19.68a.45.45,0,0,1-.43-.46V16.87a.45.45,0,0,1,.43-.47h4.24a.45.45,0,0,1,.43.47v4.65A.45.45,0,0,1,23.92,22Z"/><rect class="a" x="19.25" y="27.27" width="5.1" height="5.58" rx="0.51"/><rect class="a" x="19.25" y="38.14" width="5.1" height="5.58" rx="0.51"/><path class="a" d="M36.16,22H31.92a.45.45,0,0,1-.43-.46V16.87a.45.45,0,0,1,.43-.47h4.24a.45.45,0,0,1,.43.47v4.65A.45.45,0,0,1,36.16,22Z"/><rect class="a" x="31.49" y="27.27" width="5.1" height="5.58" rx="0.51"/><rect class="a" x="31.49" y="38.14" width="5.1" height="5.58" rx="0.51"/><path class="a" d="M48.4,22H44.15a.45.45,0,0,1-.42-.46V16.87a.45.45,0,0,1,.42-.47H48.4a.45.45,0,0,1,.43.47v4.65A.45.45,0,0,1,48.4,22Z"/><rect class="a" x="43.73" y="27.27" width="5.1" height="5.58" rx="0.51"/><rect class="a" x="43.73" y="38.14" width="5.1" height="5.58" rx="0.51"/><path class="a" d="M60.64,22H56.39a.45.45,0,0,1-.42-.46V16.87a.45.45,0,0,1,.42-.47h4.25a.45.45,0,0,1,.43.47v4.65A.45.45,0,0,1,60.64,22Z"/><rect class="a" x="55.97" y="27.27" width="5.1" height="5.58" rx="0.51"/><rect class="a" x="55.97" y="38.14" width="5.1" height="5.58" rx="0.51"/></svg>