<svg xmlns="http://www.w3.org/2000/svg" viewBox="0 0 175.41 65.97"><defs><style>.a{fill:#b9ced6;}</style></defs><path class="a" d="M65.45,56.16a6.29,6.29,0,0,1-2.76,3.33A9.05,9.05,0,0,1,58,60.66a10.78,10.78,0,0,1-3.62-.57,7.17,7.17,0,0,1-2.62-1.53,9.13,9.13,0,0,1-1.87-2.82h2.2a5.83,5.83,0,0,0,2.31,2.31,7.41,7.41,0,0,0,3.51.75A7.29,7.29,0,0,0,61.37,58a4.7,4.7,0,0,0,2-1.93A8.71,8.71,0,0,0,64,52.33v-.8a7.59,7.59,0,0,1-2.79,2.21,8.3,8.3,0,0,1-7.57-.3,7.73,7.73,0,0,1-2.95-2.89,8.17,8.17,0,0,1,7.08-12.14,7.47,7.47,0,0,1,3.29.73A9.18,9.18,0,0,1,64,41.54V38.81h2V0H0V66H66V53.24A11,11,0,0,1,65.45,56.16ZM17.11,49.87a6.16,6.16,0,0,0,2.4,2.35,6.92,6.92,0,0,0,3.41.84,6.9,6.9,0,0,0,5.65-2.76l1.6,1.05a7.53,7.53,0,0,1-3,2.63,9.53,9.53,0,0,1-4.32.94,8.51,8.51,0,0,1-6.17-2.37,7.7,7.7,0,0,1-2.46-5.76,8.28,8.28,0,0,1,4.3-7.28A9.24,9.24,0,0,1,23,38.41a9.53,9.53,0,0,1,3,.48,8.11,8.11,0,0,1,2.46,1.24,6.78,6.78,0,0,1,1.72,1.95l-1.6,1a6.73,6.73,0,0,0-5.67-2.76,6.55,6.55,0,0,0-4.76,1.85,6,6,0,0,0-1.9,4.48A6.37,6.37,0,0,0,17.11,49.87ZM45.73,52.5a7.93,7.93,0,0,1-9.13,1.64,8.81,8.81,0,0,1-2.84-2.32v8.44h-2V38.81h2V41.7a8.18,8.18,0,0,1,2.75-2.47A7.32,7.32,0,0,1,40,38.41a7.72,7.72,0,0,1,5.72,2.41,8,8,0,0,1,2.38,5.8A8.11,8.11,0,0,1,45.73,52.5Z"/><path class="a" d="M42.93,41.19a6,6,0,0,0-3.11-.83,5.92,5.92,0,0,0-4.41,1.83,6.23,6.23,0,0,0-1.79,4.55,6.41,6.41,0,0,0,.8,3.22,5.83,5.83,0,0,0,2.28,2.26,6.36,6.36,0,0,0,3.15.84,5.89,5.89,0,0,0,3.06-.85,6.13,6.13,0,0,0,2.28-2.35,6.39,6.39,0,0,0,0-6.35A6.1,6.1,0,0,0,42.93,41.19Z"/><path class="a" d="M61.12,41.17a6.13,6.13,0,0,0-3.07-.81,6.3,6.3,0,0,0-3.19.83,6,6,0,0,0-2.31,2.29,6.27,6.27,0,0,0-.84,3.17,5.72,5.72,0,0,0,1.73,4.27,6.83,6.83,0,0,0,9,0,5.94,5.94,0,0,0,1.7-4.41,6.33,6.33,0,0,0-.78-3.16A5.63,5.63,0,0,0,61.12,41.17Z"/><path class="a" d="M72.13,33.21h2V39H77.3V40.7H74.13V54.5h-2V40.7H69.4V39h2.73Z"/><path class="a" d="M87.64,38.58a7.68,7.68,0,0,1,6,2.59,8.36,8.36,0,0,1-.12,11.3,8.22,8.22,0,0,1-11.67,0,8.33,8.33,0,0,1-.12-11.28A7.68,7.68,0,0,1,87.64,38.58Zm0,2a5.8,5.8,0,0,0-4.29,1.84,6.17,6.17,0,0,0-1.79,4.46A6.37,6.37,0,0,0,82.38,50a5.67,5.67,0,0,0,2.21,2.24,6.21,6.21,0,0,0,6.1,0A5.71,5.71,0,0,0,92.89,50a6.27,6.27,0,0,0,.82-3.14,6.14,6.14,0,0,0-1.8-4.46A5.79,5.79,0,0,0,87.64,40.53Z"/><path class="a" d="M106.78,38.58a7.71,7.71,0,0,1,6,2.59,8.36,8.36,0,0,1-.12,11.3,8.22,8.22,0,0,1-11.67,0,8.3,8.3,0,0,1-.12-11.28A7.68,7.68,0,0,1,106.78,38.58Zm0,2a5.8,5.8,0,0,0-4.28,1.84,6.17,6.17,0,0,0-1.79,4.46,6.27,6.27,0,0,0,.82,3.14,5.71,5.71,0,0,0,2.2,2.24,6.21,6.21,0,0,0,6.1,0A5.67,5.67,0,0,0,112,50a6.37,6.37,0,0,0,.82-3.14,6.14,6.14,0,0,0-1.8-4.46A5.8,5.8,0,0,0,106.77,40.53Z"/><path class="a" d="M118.27,33h2V54.5h-2Z"/><path class="a" d="M124.55,54.5V33h2v8.67a8.33,8.33,0,0,1,2.81-2.31,7.88,7.88,0,0,1,9,1.63,8,8,0,0,1,2.33,5.8,7.93,7.93,0,0,1-2.35,5.75,7.67,7.67,0,0,1-5.66,2.38,7.28,7.28,0,0,1-3.44-.81,8,8,0,0,1-2.72-2.44V54.5Zm8-1.52a6,6,0,0,0,5.32-3.13,6.34,6.34,0,0,0,0-6.29,6.13,6.13,0,0,0-2.26-2.34,5.9,5.9,0,0,0-3-.83,6.27,6.27,0,0,0-3.11.83,5.91,5.91,0,0,0-2.27,2.25,6.49,6.49,0,0,0-.79,3.18,6.15,6.15,0,0,0,1.78,4.51A5.85,5.85,0,0,0,132.54,53Z"/><path class="a" d="M151.71,38.58a7.67,7.67,0,0,1,5.94,2.59,8.33,8.33,0,0,1-.12,11.3,8.21,8.21,0,0,1-11.66,0,8.3,8.3,0,0,1-.12-11.28A7.67,7.67,0,0,1,151.71,38.58Zm0,2a5.78,5.78,0,0,0-4.28,1.84,6.13,6.13,0,0,0-1.79,4.46,6.36,6.36,0,0,0,.81,3.14,5.74,5.74,0,0,0,2.21,2.24,6.21,6.21,0,0,0,6.1,0A5.74,5.74,0,0,0,157,50a6.36,6.36,0,0,0,.81-3.14A6.17,6.17,0,0,0,156,42.37,5.81,5.81,0,0,0,151.7,40.53Z"/><path class="a" d="M161.73,39h2.39l4.13,5.68L172.34,39h2.4l-5.28,7.33,5.95,8.19H173L168.25,48l-4.7,6.52h-2.38l5.88-8.17Z"/></svg>