<svg id="CPG_logo" data-name="CPG logo" xmlns="http://www.w3.org/2000/svg" width="64.434" height="64.434" viewBox="0 0 64.434 64.434">
  <path id="Path_3053" data-name="Path 3053" d="M63.927,54.852a6.175,6.175,0,0,1-2.691,3.263,8.879,8.879,0,0,1-4.6,1.131,10.765,10.765,0,0,1-3.549-.546,7.23,7.23,0,0,1-2.6-1.508,9.1,9.1,0,0,1-1.82-2.743h2.145A5.617,5.617,0,0,0,53.071,56.7a8.191,8.191,0,0,0,6.839,0,4.589,4.589,0,0,0,1.976-1.9,8.244,8.244,0,0,0,.6-3.666V50.34A7.4,7.4,0,0,1,59.805,52.5a8.047,8.047,0,0,1-3.406.754A7.918,7.918,0,0,1,52.421,52.2a7.437,7.437,0,0,1-2.9-2.8,7.8,7.8,0,0,1-1.014-3.9A7.931,7.931,0,0,1,52.5,38.626a7.8,7.8,0,0,1,3.9-1.066,7.436,7.436,0,0,1,3.211.7,9,9,0,0,1,2.873,2.353v-2.7h1.911V0H0V64.434H64.434V52A10.025,10.025,0,0,1,63.927,54.852ZM16.719,48.715A5.915,5.915,0,0,0,19.06,51a6.749,6.749,0,0,0,3.328.819A6.734,6.734,0,0,0,27.9,49.131l1.573,1.027a7.5,7.5,0,0,1-2.964,2.6,9.373,9.373,0,0,1-4.212.91,8.307,8.307,0,0,1-6.033-2.314,7.514,7.514,0,0,1-2.405-5.616,8.126,8.126,0,0,1,4.2-7.125,9.01,9.01,0,0,1,4.394-1.066,9.321,9.321,0,0,1,2.938.468A7.879,7.879,0,0,1,27.8,39.224a6.8,6.8,0,0,1,1.677,1.9L27.9,42.1a6.5,6.5,0,0,0-5.525-2.691A6.409,6.409,0,0,0,17.721,41.2a5.9,5.9,0,0,0-1.859,4.3A6.2,6.2,0,0,0,16.719,48.715Zm27.952,2.6a7.488,7.488,0,0,1-5.551,2.366,7.321,7.321,0,0,1-3.367-.767,8.555,8.555,0,0,1-2.782-2.262V58.9H31.008V37.911h1.963v2.821a7.945,7.945,0,0,1,2.691-2.405A7.035,7.035,0,0,1,39,37.521a7.541,7.541,0,0,1,5.59,2.353A7.8,7.8,0,0,1,46.973,45.5a7.905,7.905,0,0,1-2.3,5.772Z" fill="#3d7da7"/>
  <path id="Path_3054" data-name="Path 3054" d="M34.348,31.128a5.967,5.967,0,0,0-3.029-.806A5.812,5.812,0,0,0,27,32.116a6.111,6.111,0,0,0-1.742,4.446,6.293,6.293,0,0,0,.78,3.133,5.631,5.631,0,0,0,2.236,2.21,6.138,6.138,0,0,0,3.068.819,5.85,5.85,0,0,0,2.99-.819,5.916,5.916,0,0,0,2.288-2.3,6.174,6.174,0,0,0,.832-3.094,6.279,6.279,0,0,0-.832-3.107A5.941,5.941,0,0,0,34.348,31.128Z" transform="translate(7.58 9.1)" fill="#3d7da7"/>
  <path id="Path_3055" data-name="Path 3055" d="M48.042,31.113a5.967,5.967,0,0,0-3-.793,6.343,6.343,0,0,0-3.12.806,5.928,5.928,0,0,0-2.249,2.249,6.122,6.122,0,0,0-.819,3.094,5.63,5.63,0,0,0,1.69,4.173,6.045,6.045,0,0,0,4.381,1.651A5.956,5.956,0,0,0,49.3,40.656,5.773,5.773,0,0,0,50.955,36.4a6.228,6.228,0,0,0-.754-3.094A5.434,5.434,0,0,0,48.042,31.113Z" transform="translate(11.659 9.1)" fill="#3d7da7"/>
</svg>