<!--<svg xmlns="http://www.w3.org/2000/svg" width="16" height="16"><path d="M.5 1H7s0-1 1-1 1 1 1 1h6.5s.5 0 .5.5-.5.5-.5.5H.5S0 2 0 1.5.5 1 .5 1zM1 3h14v7c0 2-1 2-2 2H3c-1 0-2 0-2-2zm5 1v7l6-3.5zM3.72 15.33l.53-2s0-.5.65-.35c.51.13.38.63.38.63l-.53 2s0 .5-.64.35c-.53-.13-.39-.63-.39-.63zM11.24 15.61l-.53-1.99s0-.5.38-.63c.51-.13.64.35.64.35l.53 2s0 .5-.38.63c-.5.13-.64-.35-.65-.35z"/></svg>-->
<svg width="18" height="18" viewBox="0 0 25 25" fill="none" xmlns="http://www.w3.org/2000/svg">
<path d="M0 8.49219V1.95312C0 1.25176 0.597098 0.6875 1.33929 0.6875H8.25893C8.62723 0.6875 8.92857 0.972266 8.92857 1.32031V3.42969C8.92857 3.77773 8.62723 4.0625 8.25893 4.0625H3.57143V8.49219C3.57143 8.84023 3.27009 9.125 2.90179 9.125H0.669643C0.301339 9.125 0 8.84023 0 8.49219ZM16.0714 1.32031V3.42969C16.0714 3.77773 16.3728 4.0625 16.7411 4.0625H21.4286V8.49219C21.4286 8.84023 21.7299 9.125 22.0982 9.125H24.3304C24.6987 9.125 25 8.84023 25 8.49219V1.95312C25 1.25176 24.4029 0.6875 23.6607 0.6875H16.7411C16.3728 0.6875 16.0714 0.972266 16.0714 1.32031ZM24.3304 15.875H22.0982C21.7299 15.875 21.4286 16.1598 21.4286 16.5078V20.9375H16.7411C16.3728 20.9375 16.0714 21.2223 16.0714 21.5703V23.6797C16.0714 24.0277 16.3728 24.3125 16.7411 24.3125H23.6607C24.4029 24.3125 25 23.7482 25 23.0469V16.5078C25 16.1598 24.6987 15.875 24.3304 15.875ZM8.92857 23.6797V21.5703C8.92857 21.2223 8.62723 20.9375 8.25893 20.9375H3.57143V16.5078C3.57143 16.1598 3.27009 15.875 2.90179 15.875H0.669643C0.301339 15.875 0 16.1598 0 16.5078V23.0469C0 23.7482 0.597098 24.3125 1.33929 24.3125H8.25893C8.62723 24.3125 8.92857 24.0277 8.92857 23.6797Z" fill="#616161"/>
</svg>