<!-- This Source Code Form is subject to the terms of the Mozilla Public
   - License, v. 2.0. If a copy of the MPL was not distributed with this
   - file, You can obtain one at http://mozilla.org/MPL/2.0/. -->
<!--<svg xmlns="http://www.w3.org/2000/svg" width="16" height="16" viewBox="0 0 16 16"><rect x="2" y="7" width="12" height="2" rx="1"></rect></svg>-->


<svg width="18" height="18" viewBox="0 0 33 32" fill="none" xmlns="http://www.w3.org/2000/svg">
<path d="M19.5709 12.0911V14.0547C19.5709 14.4597 19.2283 14.791 18.8095 14.791H8.14999C7.73122 14.791 7.38859 14.4597 7.38859 14.0547V12.0911C7.38859 11.6862 7.73122 11.3548 8.14999 11.3548H18.8095C19.2283 11.3548 19.5709 11.6862 19.5709 12.0911ZM32.3243 29.5605L30.5287 31.2971C29.9323 31.8738 28.9678 31.8738 28.3777 31.2971L22.0455 25.1794C21.7599 24.9033 21.6013 24.529 21.6013 24.1363V23.1361C19.3615 24.8296 16.5444 25.8359 13.4798 25.8359C6.18939 25.8359 0.282227 20.1233 0.282227 13.0729C0.282227 6.02256 6.18939 0.309875 13.4798 0.309875C20.7701 0.309875 26.6773 6.02256 26.6773 13.0729C26.6773 16.0366 25.6367 18.7611 23.8855 20.9271H24.9197C25.3258 20.9271 25.7129 21.0805 25.9984 21.3566L32.3243 27.4743C32.9144 28.0511 32.9144 28.9838 32.3243 29.5605ZM22.1089 13.0729C22.1089 8.45858 18.2512 4.72785 13.4798 4.72785C8.70834 4.72785 4.8506 8.45858 4.8506 13.0729C4.8506 17.6872 8.70834 21.418 13.4798 21.418C18.2512 21.418 22.1089 17.6872 22.1089 13.0729Z" fill="black"/>
</svg>

