<!-- This Source Code Form is subject to the terms of the Mozilla Public
   - License, v. 2.0. If a copy of the MPL was not distributed with this
   - file, You can obtain one at http://mozilla.org/MPL/2.0/. -->
<!--<svg xmlns="http://www.w3.org/2000/svg" width="16" height="16" viewBox="0 0 16
16">
<path 
   transform='rotate(90) translate(0, -16)'
   d="M15 7H3.414l4.293-4.293a1 1 0 0
0-1.414-1.414l-6 6a1 1 0 0 0 0 1.414l6 6a1 1 0 0 0 1.414-1.414L3.414 9H15a1 1 0 0
0 0-2z">
</path>
</svg>-->

<svg width="20" height="20" viewBox="0 0 24 24" fill="none" xmlns="http://www.w3.org/2000/svg">
<path d="M0 11.5C0 5.14718 5.14718 0 11.5 0C17.8528 0 23 5.14718 23 11.5C23 17.8528 17.8528 23 11.5 23C5.14718 23 0 17.8528 0 11.5ZM6.65887 12.8401L10.0161 9.33911V17.8065C10.0161 18.4232 10.5123 18.9194 11.129 18.9194H11.871C12.4877 18.9194 12.9839 18.4232 12.9839 17.8065V9.33911L16.3411 12.8401C16.7724 13.2899 17.4911 13.2992 17.9317 12.8587L18.4371 12.3486C18.873 11.9127 18.873 11.2079 18.4371 10.7766L12.2883 4.62319C11.8524 4.1873 11.1476 4.1873 10.7163 4.62319L4.55827 10.7766C4.12238 11.2125 4.12238 11.9173 4.55827 12.3486L5.06371 12.8587C5.50887 13.2992 6.22762 13.2899 6.65887 12.8401Z" fill="#595959"/>
</svg>
