<!-- This Source Code Form is subject to the terms of the Mozilla Public
   - License, v. 2.0. If a copy of the MPL was not distributed with this
   - file, You can obtain one at http://mozilla.org/MPL/2.0/. -->
<!--<svg xmlns="http://www.w3.org/2000/svg" width="16" height="16" viewBox="0 0 16 16"><path d="M14 3h-2v2h2v8H2V5h7V3h-.849L6.584 1.538A2 2 0 0 0 5.219 1H2a2 2 0 0 0-2 2v10a2 2 0 0 0 2 2h12a2 2 0 0 0 2-2V5a2 2 0 0 0-2-2zM2 3h3.219l1.072 1H2z"></path><path d="M8.146 6.146a.5.5 0 0 0 0 .707l2 2a.5.5 0 0 0 .707 0l2-2a.5.5 0 1 0-.707-.707L11 7.293V.5a.5.5 0 0 0-1 0v6.793L8.854 6.146a.5.5 0 0 0-.708 0z"></path></svg>-->

<svg width="25" height="25" viewBox="2 2 15 15" fill="none" xmlns="http://www.w3.org/2000/svg">
<path fill-rule="evenodd" clip-rule="evenodd" d="M9.37509 5.9375H10.3688C10.9251 5.9375 11.2001 6.6125 10.8063 7.00625L7.93759 9.875C7.69384 10.1187 7.30009 10.1187 7.05634 9.875L4.18758 7.00625C3.79383 6.6125 4.07508 5.9375 4.63133 5.9375H5.62508V2.8125C5.62508 2.46875 5.90633 2.1875 6.25009 2.1875H8.75009C9.09384 2.1875 9.37509 2.46875 9.37509 2.8125V5.9375ZM3.75 12.8125C3.40625 12.8125 3.125 12.5312 3.125 12.1875C3.125 11.8438 3.40625 11.5625 3.75 11.5625H11.25C11.5938 11.5625 11.875 11.8438 11.875 12.1875C11.875 12.5312 11.5938 12.8125 11.25 12.8125H3.75Z" fill="black"/>
</svg>




