<!-- This Source Code Form is subject to the terms of the Mozilla Public
   - License, v. 2.0. If a copy of the MPL was not distributed with this
   - file, You can obtain one at http://mozilla.org/MPL/2.0/. -->
<!--<svg xmlns="http://www.w3.org/2000/svg" width="16" height="16" viewBox="0 0 16
16"><path transform='rotate(90) translate(0, -16)'
d="M15.707 7.293l-6-6a1 1 0 0 0-1.414 1.414L12.586 7H1a1 1 0 0 0 0 2h11.586l-4.293
4.293a1 1 0 1 0 1.414 1.414l6-6a1 1 0 0 0 0-1.414z"></path></svg>-->

<svg width="20" height="20" viewBox="0 0 24 24" fill="none" xmlns="http://www.w3.org/2000/svg">
<path d="M23.3125 11.75C23.3125 18.1028 18.1653 23.25 11.8125 23.25C5.45968 23.25 0.3125 18.1028 0.312501 11.75C0.312502 5.39717 5.45968 0.249998 11.8125 0.249999C18.1653 0.25 23.3125 5.39718 23.3125 11.75ZM16.6536 10.4099L13.2964 13.9109L13.2964 5.44355C13.2964 4.82681 12.8002 4.33064 12.1835 4.33064L11.4415 4.33064C10.8248 4.33064 10.3286 4.82681 10.3286 5.44355L10.3286 13.9109L6.97137 10.4099C6.54012 9.96008 5.82137 9.95081 5.38085 10.3913L4.8754 10.9014C4.43952 11.3373 4.43952 12.0421 4.8754 12.4734L11.0242 18.6268C11.4601 19.0627 12.1649 19.0627 12.5962 18.6268L18.7542 12.4734C19.1901 12.0375 19.1901 11.3327 18.7542 10.9014L18.2488 10.3913C17.8036 9.95081 17.0849 9.96008 16.6536 10.4099Z" fill="black"/>
</svg>
