<!-- This Source Code Form is subject to the terms of the Mozilla Public
   - License, v. 2.0. If a copy of the MPL was not distributed with this
   - file, You can obtain one at http://mozilla.org/MPL/2.0/. -->
<!--<svg xmlns="http://www.w3.org/2000/svg" width="16" height="16" viewBox="0 0 16 16"><path d="M14 7H9V2a1 1 0 0 0-2 0v5H2a1 1 0 0 0 0 2h5v5a1 1 0 0 0 2 0V9h5a1 1 0 0 0 0-2z"></path></svg>-->

<svg width="18" height="18" viewBox="0 0 34 32" fill="none" xmlns="http://www.w3.org/2000/svg">
<path d="M20.1383 12.0911V14.0547C20.1383 14.4597 19.7957 14.791 19.3769 14.791H15.8237V18.2272C15.8237 18.6322 15.4811 18.9635 15.0623 18.9635H13.0319C12.6132 18.9635 12.2705 18.6322 12.2705 18.2272V14.791H8.71737C8.2986 14.791 7.95597 14.4597 7.95597 14.0547V12.0911C7.95597 11.6862 8.2986 11.3548 8.71737 11.3548H12.2705V7.91861C12.2705 7.51363 12.6132 7.18228 13.0319 7.18228H15.0623C15.4811 7.18228 15.8237 7.51363 15.8237 7.91861V11.3548H19.3769C19.7957 11.3548 20.1383 11.6862 20.1383 12.0911ZM32.8917 29.5605L31.0961 31.2971C30.4996 31.8738 29.5352 31.8738 28.9451 31.2971L22.6128 25.1794C22.3273 24.9033 22.1687 24.529 22.1687 24.1363V23.1361C19.9289 24.8296 17.1118 25.8359 14.0471 25.8359C6.75677 25.8359 0.849609 20.1233 0.849609 13.0729C0.849609 6.02256 6.75677 0.309875 14.0471 0.309875C21.3375 0.309875 27.2447 6.02256 27.2447 13.0729C27.2447 16.0366 26.2041 18.7611 24.4529 20.9271H25.4871C25.8932 20.9271 26.2802 21.0805 26.5658 21.3566L32.8917 27.4743C33.4818 28.0511 33.4818 28.9838 32.8917 29.5605ZM22.6763 13.0729C22.6763 8.45858 18.8186 4.72785 14.0471 4.72785C9.27573 4.72785 5.41799 8.45858 5.41799 13.0729C5.41799 17.6872 9.27573 21.418 14.0471 21.418C18.8186 21.418 22.6763 17.6872 22.6763 13.0729Z" fill="black"/>
</svg>
